<?xml version="1.0" encoding="UTF-8"?><svg id="Layer_2" xmlns="http://www.w3.org/2000/svg" xmlns:xlink="http://www.w3.org/1999/xlink" viewBox="0 0 2162 2162"><defs><style>.cls-1{stroke:#231f20;stroke-miterlimit:22.926;stroke-width:2px;}.cls-1,.cls-2{fill:#fff;}.cls-1,.cls-2,.cls-3,.cls-4,.cls-5{fill-rule:evenodd;}.cls-3{fill:#00a651;}.cls-6{clip-path:url(#clippath);}.cls-7{clip-rule:evenodd;fill:none;}.cls-4{fill:#f15a22;}</style><clipPath id="clippath"><path class="cls-7" d="M1081,93.954c545.13,0,987.046,441.916,987.046,987.046s-441.916,987.046-987.046,987.046S93.954,1626.13,93.954,1081,535.869,93.954,1081,93.954h0Zm0,78.093c502.002,0,908.953,406.95,908.953,908.953s-406.95,908.953-908.953,908.953S172.047,1583.002,172.047,1081,578.997,172.047,1081,172.047h0Z"/></clipPath></defs><g id="Layer_1-2"><g><path class="cls-1" d="M1081,1c596.467,0,1080,483.533,1080,1080s-483.533,1080-1080,1080S1,1677.467,1,1081,484.533,1,1081,1h0Z"/><path class="cls-5" d="M940.336,1853.753c-7.7,0-19.719-1.999-36.074-5.977-16.345-3.986-28.37-5.985-36.066-5.985-1.921,0-3.608-.75-5.051-2.241-1.443-1.486-2.161-3.227-2.161-5.224,0-3.986,3.603-7.478,10.823-10.467,7.208-2.989,15.623-4.484,25.244-4.484,3.841,0,9.864,1.245,18.038,3.735,8.175,2.491,14.19,3.738,18.028,3.738,8.655,0,20.681-2.489,36.07-7.473,15.393-4.976,27.423-7.471,36.074-7.471,5.765,0,10.82,1.49,15.142,4.486,4.332,2.985,6.494,6.472,6.494,10.458,0,5.974-3.601,11.216-10.816,15.693-7.208,4.489-15.637,6.721-25.247,6.721-5.775,0-14.191,.753-25.254,2.249-11.057,1.497-19.478,2.243-25.243,2.243h0Zm158.708-400.562c5.765,0,12.019-3.488,18.75-10.462,6.731-6.975,12.506-15.941,17.313-26.902,2.889-8.97,9.376-18.191,19.482-27.656,10.094-9.462,22.845-17.685,38.231-24.663,17.314-4.976,31.256-13.696,41.835-26.156,10.587-12.453,15.875-26.151,15.875-41.095,0-11.962-2.646-22.672-7.934-32.138-5.29-9.465-12.262-16.195-20.921-20.181-39.437,14.947-77.912,22.421-115.421,22.421-47.134,0-90.416-7.473-129.85-22.421-8.658,3.986-15.622,11.459-20.921,22.421-5.284,10.961-7.93,23.418-7.93,37.368,0,10.961,3.124,21.671,9.372,32.14,6.254,10.456,15.15,19.674,26.694,27.642,38.469,22.922,62.516,42.85,72.137,59.788,4.809,8.97,11.059,16.193,18.756,21.671,7.696,5.483,15.871,8.224,24.533,8.224h0Zm-230.847-104.627c15.393,0,29.816-2.487,43.282-7.471-4.811-13.956-7.216-33.883-7.216-59.788,0-4.98,2.405-11.955,7.216-20.918,4.811-8.973,12.022-19.439,21.639-31.398-29.812-5.977-61.077-18.428-93.775-37.362-13.469,4.974-26.698,8.716-39.682,11.213-12.984,2.493-26.206,3.735-39.671,3.735,2.883,0-9.143-2.489-36.07-7.48-22.124,10.965-39.915,22.927-53.388,35.872-13.462,12.956-22.12,25.911-25.964,38.867,15.393-5.981,33.42-5.73,54.104,.74,20.673,6.476,41.117,18.686,61.317,36.626,16.351,11.957,33.906,21.172,52.655,27.648,18.763,6.479,37.28,9.716,55.552,9.716h0Zm468.896,7.469c16.358,0,33.188-3.731,50.497-11.204,17.31-7.478,34.146-18.687,50.498-33.63,20.198-16.939,40.395-29.397,60.602-37.365,20.196-7.976,38.465-10.466,54.823-7.477-5.773-15.945-13.95-28.646-24.528-38.112-10.58-9.464-21.64-14.196-33.188-14.196-53.865,14.94-87.522,22.42-100.992,22.42-29.816,0-51.459-2.491-64.921-7.48-10.586,0-20.684,1.248-30.297,3.742-9.618,2.489-18.76,6.228-27.415,11.205,4.813,5.981,8.414,12.712,10.819,20.181,2.406,7.474,3.605,15.689,3.605,24.659,0,12.953-1.198,24.413-3.605,34.379-2.405,9.96-6.006,18.432-10.819,25.407,6.727,1.999,15.386,3.738,25.968,5.234,10.583,1.49,23.568,2.235,38.953,2.235h0Zm-238.048-127.044c46.161,0,85.354-20.419,117.576-61.278,32.222-40.856,48.337-90.175,48.337-147.966,0-68.755-14.183-141.991-42.56-219.717-28.377-77.713-69.494-156.433-123.352-236.153-58.675,86.694-103.404,168.399-134.179,245.122-30.782,76.728-46.167,144.482-46.167,203.274,0,59.785,17.547,110.849,52.655,153.196,35.111,42.355,77.672,63.521,127.691,63.521h0Zm-151.492-29.895c-21.169-25.901-37.276-56.794-48.336-92.661-11.059-35.872-16.591-74.73-16.591-116.583,0-33.88,5.532-71.495,16.591-112.84,11.061-41.361,27.167-85.945,48.336-133.774-29.82-52.815-62.283-95.661-97.391-128.537-35.112-32.895-69.971-52.309-104.602-58.297,11.542,11.965,20.444,27.648,26.698,47.076,6.254,19.439,9.376,41.114,9.376,65.02,0,22.923-4.81,52.811-14.427,89.685-9.62,26.905-14.431,69.247-14.431,127.04,0,76.729,18.032,144.238,54.105,202.521,36.063,58.297,82.953,95.413,140.672,111.351h0Zm-187.562-37.361c15.389,0,29.816-2.49,43.285-7.471-29.82-30.892-52.909-71.743-69.254-122.559-16.351-50.826-24.528-107.124-24.528-168.897,0-27.9,4.811-70.244,14.427-127.038-33.661-48.831-72.615-87.194-116.869-115.096-44.24-27.9-89.446-41.849-135.614-41.849,23.078,28.901,40.877,68.253,53.376,118.075,12.506,49.821,18.759,107.616,18.759,173.382,0,71.741,22.601,138.254,67.807,199.538,45.213,61.279,94.748,91.916,148.609,91.916h0Zm476.112,52.315c56.75-4.984,104.599-30.394,143.55-76.233,38.961-45.832,58.435-100.131,58.435-162.91,0-73.735-7.212-131.03-21.64-171.89-19.237-74.732-28.858-124.551-28.858-149.464,0-16.932,1.925-32.88,5.769-47.827,3.853-14.947,9.141-28.886,15.871-41.85-35.586,2.996-69.969,17.194-103.16,42.599-33.177,25.417-61.314,58.544-84.396,99.389,27.896,50.822,49.292,103.385,64.204,157.688,14.908,54.307,22.361,108.861,22.361,163.663,0,25.915-6.254,54.801-18.757,86.695-12.496,31.882-30.301,65.264-53.379,100.139h0Zm187.559-22.422c51.943,0,99.792-31.39,143.558-94.164,43.77-62.779,65.643-131.028,65.643-204.762,0-17.94-1.2-44.093-3.609-78.472-2.408-34.372-3.604-60.532-3.604-78.461,0-30.892,5.525-60.542,16.596-88.93,11.053-28.398,27.164-53.568,48.326-75.489-49.065,0-95.704,16.945-139.944,50.822-44.248,33.877-79.356,79.21-105.324,136.011,19.237,74.736,28.854,139.5,28.854,194.303,0,47.827-8.174,91.915-24.53,132.273-16.344,40.357-39.433,73.483-69.254,99.395,6.734,1.995,13.709,3.735,20.925,5.231,7.212,1.496,14.671,2.242,22.362,2.242h0Zm-504.963,612.798c-23.089,0-42.083-1.995-56.995-5.97-14.908-3.993-22.36-9.475-22.36-16.45,0-9.96,5.531-18.68,16.591-26.156,11.06-7.469,24.766-11.205,41.117-11.205,7.696,0,19.722,1.245,36.066,3.736,16.355,2.489,28.373,3.738,36.07,3.738h28.854c18.284-22.92,32.467-50.568,42.562-82.953,10.105-32.389,15.152-67.015,15.152-103.881,0-33.874-5.048-64.02-15.152-90.427-10.095-26.4-24.278-46.087-42.562-59.032-45.205-26.906-69.25-41.857-72.136-44.842-8.658,4.98-17.791,8.715-27.412,11.205-9.617,2.489-19.723,3.739-30.297,3.739-22.124,0-44.249-3.739-66.368-11.209-22.116-7.47-43.285-18.686-63.478-33.626-16.358-11.958-32.703-21.175-49.058-27.656-16.347-6.476-31.257-9.712-44.724-9.712-7.698,0-15.154,1.249-22.362,3.735-7.219,2.491-14.19,6.229-20.921,11.213-1.924-3.986-3.611-7.972-5.047-11.959-1.449-3.986-2.172-7.473-2.172-10.458,0-18.937,7.704-38.359,23.091-58.29,15.389-19.93,36.551-37.866,63.481-53.811-53.865-19.931-97.383-63.524-130.567-130.784-33.188-67.259-49.779-145.73-49.779-235.407,0-52.806-7.452-102.13-22.368-147.965-14.904-45.833-36.308-86.185-64.2-121.06,5.776-4.991,12.988-8.722,21.64-11.217,8.662-2.497,18.279-3.731,28.864-3.731,50.972,0,100.748,14.438,149.321,43.336,48.573,28.896,90.172,69.25,124.802,121.07,4.807-18.93,7.208-33.877,7.208-44.845,0-17.93-5.047-37.856-15.141-59.778-10.106-21.926-24.289-44.347-42.571-67.255,3.848-1.999,8.177-3.742,12.984-5.228,4.817-1.51,10.105-2.26,15.881-2.26,49.047,0,96.899,15.947,143.545,47.841,46.659,31.879,85.372,75.726,116.146,131.526,25.014-55.8,65.891-125.548,122.641-209.25,30.775,37.87,64.432,97.652,100.984,179.352,28.854-42.846,62.041-77.958,99.559-105.373,37.505-27.401,76.458-44.58,116.861-51.555,7.69,0,15.15,.746,22.365,2.232,7.212,1.495,14.187,3.242,20.917,5.228-11.542,20.938-20.437,41.602-26.69,62.039-6.25,20.426-9.38,39.603-9.38,57.536,0,25.915,2.405,48.333,7.215,67.259,29.812-52.796,68.525-94.661,116.139-125.542,47.615-30.895,97.875-46.331,150.767-46.331,10.58,0,20.2,1.234,28.862,3.731,8.658,2.495,15.87,6.225,21.635,11.217-25.006,25.89-44.484,54.54-58.434,85.934-13.935,31.381-20.91,62.531-20.91,93.412,0,17.94,1.195,44.091,3.603,78.474,2.395,34.377,3.609,60.532,3.609,78.464,0,56.797-12.019,111.352-36.064,163.667-24.055,52.308-57.716,97.397-101.005,135.264,20.204,14.94,36.074,31.631,47.611,50.072,11.542,18.432,17.317,36.615,17.317,54.551,0,5.978-2.401,15.941-7.212,29.895-20.202-14.948-34.627-22.417-43.282-22.417-13.469,0-28.377,3.738-44.728,11.204-16.352,7.47-32.707,18.682-49.054,33.633-19.238,16.935-40.152,29.891-62.764,38.857-22.602,8.97-44.966,13.454-67.083,13.454-18.272,0-33.909-1.244-46.894-3.738-12.981-2.497-23.811-6.228-32.461-11.212-31.741,5.98-57.71,20.185-77.906,42.606-20.206,22.414-30.301,48.068-30.301,76.965,0,64.769-4.326,119.571-12.984,164.409-8.658,44.841-21.161,77.229-37.513,97.149l72.14-7.466c3.841,0,7.212,1.496,10.095,4.481,2.889,2.985,4.328,6.477,4.328,10.463,0,7.969-3.607,14.944-10.815,20.925-7.219,5.98-15.635,8.966-25.251,8.966h-50.497c-5.773,0-12.019-3.488-18.757-10.463-6.731-6.975-12.504-15.945-17.313-26.906,16.347-16.931,28.854-46.825,37.513-89.672,8.654-42.844,12.984-95.163,12.984-156.936,0-3.989-2.162-7.473-6.487-10.465-4.33-2.989-9.383-4.484-15.156-4.484v52.315c0,87.685-13.461,151.955-40.399,192.807-26.931,40.855-68.769,61.278-125.513,61.278h0Zm-7.219,97.16c-17.317,0-31.257-1.753-41.839-5.242-10.583-3.483-15.87-8.213-15.87-14.198,0-3.986,3.607-7.466,10.819-10.458,7.219-2.993,15.633-4.488,25.251-4.488h50.497c7.693,0,14.423,1.244,20.2,3.742,5.772,2.489,8.651,5.224,8.651,8.223,0,6.975-5.294,12.447-15.863,16.441-10.583,3.982-24.533,5.98-41.846,5.98h0Zm158.701-14.954c-13.462,0-24.045-1.238-31.738-3.735-7.7-2.491-11.544-6.233-11.544-11.209,0-3.994,2.164-7.474,6.496-10.46,4.326-2.998,9.377-4.484,15.142-4.484,3.851,0,9.857-1.249,18.038-3.738,8.174-2.49,14.191-3.746,18.035-3.746s9.861,1.255,18.034,3.746c8.179,2.489,14.191,3.738,18.036,3.738s7.212,1.242,10.097,3.731c2.887,2.491,4.33,5.231,4.33,8.22,0,5.985-6.25,10.469-18.754,13.451-12.506,2.989-27.892,4.486-46.174,4.486h0Zm36.073-44.842c-14.427,0-26.446-1.496-36.073-4.48-9.618-2.985-14.424-6.481-14.424-10.463,0-5.977,2.882-11.205,8.658-15.693,5.765-4.484,12.507-6.727,20.196-6.727h64.924c5.78,0,10.82,1.496,15.149,4.484,4.333,2.992,6.49,6.477,6.49,10.463,0,6.975-6.006,12.461-18.027,16.439-12.026,3.99-27.656,5.977-46.894,5.977h0Zm100.994,44.842c-17.313,0-31.263-1.238-41.845-3.735-10.579-2.491-15.868-6.233-15.868-11.209s4.333-9.472,12.988-13.458c8.651-3.986,18.757-5.971,30.297-5.971l64.928-2.998c7.687,0,14.425,1.503,20.19,4.492,5.779,2.992,8.658,6.473,8.658,10.462,0,6.972-7.212,12.451-21.639,16.437-14.427,3.993-33.665,5.981-57.71,5.981h0Zm36.071-59.786c-24.052,0-36.071-2.489-36.071-7.473,0-5.981,2.887-11.205,8.648-15.69,5.779-4.482,12.51-6.731,20.207-6.731h64.928c5.765,0,10.815,1.496,15.141,4.484,4.33,2.989,6.498,6.483,6.498,10.466s-1.447,7.471-4.326,10.459c-2.886,2.989-6.25,4.484-10.101,4.484h-64.924Zm-14.431-44.841c-7.69,0-14.421-1.493-20.2-4.489-5.772-2.978-8.656-6.465-8.656-10.451,0-6.979,5.292-12.458,15.864-16.444,10.586-3.982,24.536-5.977,41.852-5.977,13.463,0,24.045,1.995,31.734,5.977,7.696,3.986,11.549,9.466,11.549,16.444,0,4.98-1.931,8.711-5.776,11.202-3.845,2.493-9.135,3.738-15.87,3.738h-50.497Z"/><path class="cls-2" d="M1081,93.954c545.13,0,987.046,441.916,987.046,987.046s-441.916,987.046-987.046,987.046S93.954,1626.13,93.954,1081,535.869,93.954,1081,93.954h0Zm0,78.093c502.002,0,908.953,406.95,908.953,908.953s-406.95,908.953-908.953,908.953S172.047,1583.002,172.047,1081,578.997,172.047,1081,172.047h0Z"/><g class="cls-6"><polygon class="cls-4" points="1081.002 2798.621 222.19 1939.809 1939.811 222.189 2798.622 1081 1081.002 2798.621 1081.002 2798.621"/><polygon class="cls-3" points="222.19 1939.809 -636.621 1080.998 1081 -636.622 1939.811 222.189 222.19 1939.809 222.19 1939.809"/></g></g></g></svg>